<mxfile host="app.diagrams.net" agent="Mozilla/5.0 (Macintosh; Intel Mac OS X 10_15_7) AppleWebKit/537.36 (KHTML, like Gecko) Chrome/129.0.0.0 Safari/537.36" version="24.8.0">
  <diagram name="Page-1" id="23bxmNoWdvt7uAkhw-He">
    <mxGraphModel dx="4465" dy="2952" grid="1" gridSize="10" guides="1" tooltips="1" connect="1" arrows="1" fold="1" page="1" pageScale="1" pageWidth="827" pageHeight="1169" math="0" shadow="0">
      <root>
        <mxCell id="0" />
        <mxCell id="1" parent="0" />
        <mxCell id="KuRJOXqsIZkGUwwfbZ2d-1" value="&lt;font style=&quot;font-size: 24px;&quot;&gt;Airline&lt;/font&gt;" style="rounded=0;whiteSpace=wrap;html=1;" vertex="1" parent="1">
          <mxGeometry x="-330" y="70" width="200" height="60" as="geometry" />
        </mxCell>
        <mxCell id="KuRJOXqsIZkGUwwfbZ2d-4" value="&lt;font style=&quot;font-size: 24px;&quot;&gt;Aircrafts&lt;/font&gt;" style="rounded=0;whiteSpace=wrap;html=1;" vertex="1" parent="1">
          <mxGeometry x="-330" y="380" width="200" height="60" as="geometry" />
        </mxCell>
        <mxCell id="KuRJOXqsIZkGUwwfbZ2d-5" value="&lt;font style=&quot;font-size: 24px;&quot;&gt;crew&lt;/font&gt;" style="rounded=0;whiteSpace=wrap;html=1;" vertex="1" parent="1">
          <mxGeometry x="-330" y="640" width="200" height="60" as="geometry" />
        </mxCell>
        <mxCell id="KuRJOXqsIZkGUwwfbZ2d-10" value="&lt;font style=&quot;font-size: 18px;&quot;&gt;Own&lt;/font&gt;" style="rhombus;whiteSpace=wrap;html=1;" vertex="1" parent="1">
          <mxGeometry x="-270" y="220" width="80" height="80" as="geometry" />
        </mxCell>
        <mxCell id="KuRJOXqsIZkGUwwfbZ2d-13" value="&lt;font style=&quot;font-size: 18px;&quot;&gt;Own&lt;/font&gt;" style="rhombus;whiteSpace=wrap;html=1;" vertex="1" parent="1">
          <mxGeometry x="-270" y="500" width="80" height="80" as="geometry" />
        </mxCell>
        <mxCell id="KuRJOXqsIZkGUwwfbZ2d-14" value="" style="endArrow=none;html=1;rounded=0;entryX=0.5;entryY=1;entryDx=0;entryDy=0;exitX=0.5;exitY=0;exitDx=0;exitDy=0;" edge="1" parent="1" source="KuRJOXqsIZkGUwwfbZ2d-10" target="KuRJOXqsIZkGUwwfbZ2d-1">
          <mxGeometry width="50" height="50" relative="1" as="geometry">
            <mxPoint x="-320" y="220" as="sourcePoint" />
            <mxPoint x="-270" y="170" as="targetPoint" />
          </mxGeometry>
        </mxCell>
        <mxCell id="KuRJOXqsIZkGUwwfbZ2d-15" value="" style="endArrow=none;html=1;rounded=0;exitX=0.5;exitY=1;exitDx=0;exitDy=0;entryX=0.5;entryY=0;entryDx=0;entryDy=0;" edge="1" parent="1" source="KuRJOXqsIZkGUwwfbZ2d-10" target="KuRJOXqsIZkGUwwfbZ2d-4">
          <mxGeometry width="50" height="50" relative="1" as="geometry">
            <mxPoint x="-100" y="380" as="sourcePoint" />
            <mxPoint x="-50" y="330" as="targetPoint" />
          </mxGeometry>
        </mxCell>
        <mxCell id="KuRJOXqsIZkGUwwfbZ2d-16" value="" style="endArrow=none;html=1;rounded=0;exitX=0.5;exitY=0;exitDx=0;exitDy=0;entryX=0.5;entryY=1;entryDx=0;entryDy=0;" edge="1" parent="1" source="KuRJOXqsIZkGUwwfbZ2d-13" target="KuRJOXqsIZkGUwwfbZ2d-4">
          <mxGeometry width="50" height="50" relative="1" as="geometry">
            <mxPoint x="-90" y="390" as="sourcePoint" />
            <mxPoint x="-40" y="340" as="targetPoint" />
          </mxGeometry>
        </mxCell>
        <mxCell id="KuRJOXqsIZkGUwwfbZ2d-20" value="&lt;font style=&quot;font-size: 18px;&quot;&gt;Contact_Person&lt;/font&gt;" style="ellipse;whiteSpace=wrap;html=1;" vertex="1" parent="1">
          <mxGeometry x="-270" y="-170" width="140" height="80" as="geometry" />
        </mxCell>
        <mxCell id="KuRJOXqsIZkGUwwfbZ2d-21" value="&lt;font style=&quot;font-size: 18px;&quot;&gt;adress&lt;/font&gt;" style="ellipse;whiteSpace=wrap;html=1;" vertex="1" parent="1">
          <mxGeometry x="-400" y="-150" width="120" height="80" as="geometry" />
        </mxCell>
        <mxCell id="KuRJOXqsIZkGUwwfbZ2d-22" value="&lt;font style=&quot;font-size: 18px;&quot;&gt;Telephons&lt;/font&gt;" style="ellipse;whiteSpace=wrap;html=1;" vertex="1" parent="1">
          <mxGeometry x="-150" y="-80" width="120" height="80" as="geometry" />
        </mxCell>
        <mxCell id="KuRJOXqsIZkGUwwfbZ2d-23" value="&lt;font style=&quot;font-size: 18px;&quot;&gt;&lt;u&gt;ID&lt;/u&gt;&lt;/font&gt;" style="ellipse;whiteSpace=wrap;html=1;" vertex="1" parent="1">
          <mxGeometry x="-500" y="160" width="120" height="80" as="geometry" />
        </mxCell>
        <mxCell id="KuRJOXqsIZkGUwwfbZ2d-24" value="&lt;font style=&quot;font-size: 18px;&quot;&gt;Name&lt;/font&gt;" style="ellipse;whiteSpace=wrap;html=1;" vertex="1" parent="1">
          <mxGeometry x="-520" y="-100" width="120" height="80" as="geometry" />
        </mxCell>
        <mxCell id="KuRJOXqsIZkGUwwfbZ2d-25" value="" style="endArrow=none;html=1;rounded=0;exitX=0.25;exitY=1;exitDx=0;exitDy=0;entryX=1;entryY=0.5;entryDx=0;entryDy=0;" edge="1" parent="1" source="KuRJOXqsIZkGUwwfbZ2d-1" target="KuRJOXqsIZkGUwwfbZ2d-23">
          <mxGeometry width="50" height="50" relative="1" as="geometry">
            <mxPoint x="-220" y="230" as="sourcePoint" />
            <mxPoint x="-390" y="180" as="targetPoint" />
          </mxGeometry>
        </mxCell>
        <mxCell id="KuRJOXqsIZkGUwwfbZ2d-26" value="" style="endArrow=none;html=1;rounded=0;entryX=1;entryY=1;entryDx=0;entryDy=0;exitX=0;exitY=0;exitDx=0;exitDy=0;" edge="1" parent="1" source="KuRJOXqsIZkGUwwfbZ2d-1" target="KuRJOXqsIZkGUwwfbZ2d-24">
          <mxGeometry width="50" height="50" relative="1" as="geometry">
            <mxPoint x="-320" y="110" as="sourcePoint" />
            <mxPoint x="-460" y="110" as="targetPoint" />
          </mxGeometry>
        </mxCell>
        <mxCell id="KuRJOXqsIZkGUwwfbZ2d-27" value="" style="endArrow=none;html=1;rounded=0;entryX=0.5;entryY=1;entryDx=0;entryDy=0;exitX=0.25;exitY=0;exitDx=0;exitDy=0;" edge="1" parent="1" source="KuRJOXqsIZkGUwwfbZ2d-1" target="KuRJOXqsIZkGUwwfbZ2d-21">
          <mxGeometry width="50" height="50" relative="1" as="geometry">
            <mxPoint x="-310" y="120" as="sourcePoint" />
            <mxPoint x="-450" y="120" as="targetPoint" />
          </mxGeometry>
        </mxCell>
        <mxCell id="KuRJOXqsIZkGUwwfbZ2d-28" value="" style="endArrow=none;html=1;rounded=0;entryX=0.5;entryY=1;entryDx=0;entryDy=0;exitX=0.5;exitY=0;exitDx=0;exitDy=0;" edge="1" parent="1" source="KuRJOXqsIZkGUwwfbZ2d-1" target="KuRJOXqsIZkGUwwfbZ2d-20">
          <mxGeometry width="50" height="50" relative="1" as="geometry">
            <mxPoint x="-270" y="80" as="sourcePoint" />
            <mxPoint x="-348" y="-72" as="targetPoint" />
          </mxGeometry>
        </mxCell>
        <mxCell id="KuRJOXqsIZkGUwwfbZ2d-29" value="" style="endArrow=none;html=1;rounded=0;entryX=0;entryY=1;entryDx=0;entryDy=0;exitX=0.75;exitY=0;exitDx=0;exitDy=0;" edge="1" parent="1" source="KuRJOXqsIZkGUwwfbZ2d-1" target="KuRJOXqsIZkGUwwfbZ2d-97">
          <mxGeometry width="50" height="50" relative="1" as="geometry">
            <mxPoint x="-260" y="90" as="sourcePoint" />
            <mxPoint x="-338" y="-62" as="targetPoint" />
          </mxGeometry>
        </mxCell>
        <mxCell id="KuRJOXqsIZkGUwwfbZ2d-31" value="&lt;font style=&quot;font-size: 24px;&quot;&gt;Employees&lt;/font&gt;" style="rounded=0;whiteSpace=wrap;html=1;" vertex="1" parent="1">
          <mxGeometry x="200" y="70" width="200" height="60" as="geometry" />
        </mxCell>
        <mxCell id="KuRJOXqsIZkGUwwfbZ2d-32" value="&lt;font style=&quot;font-size: 18px;&quot;&gt;Adress&lt;/font&gt;" style="ellipse;whiteSpace=wrap;html=1;" vertex="1" parent="1">
          <mxGeometry x="250" y="-140" width="120" height="80" as="geometry" />
        </mxCell>
        <mxCell id="KuRJOXqsIZkGUwwfbZ2d-33" value="Birth_Day" style="ellipse;whiteSpace=wrap;html=1;fontSize=18;" vertex="1" parent="1">
          <mxGeometry x="110" y="-130" width="120" height="80" as="geometry" />
        </mxCell>
        <mxCell id="KuRJOXqsIZkGUwwfbZ2d-34" value="&lt;font style=&quot;font-size: 18px;&quot;&gt;Gender&lt;/font&gt;" style="ellipse;whiteSpace=wrap;html=1;" vertex="1" parent="1">
          <mxGeometry x="370" y="-110" width="120" height="80" as="geometry" />
        </mxCell>
        <mxCell id="KuRJOXqsIZkGUwwfbZ2d-36" value="Name" style="ellipse;whiteSpace=wrap;html=1;fontSize=18;" vertex="1" parent="1">
          <mxGeometry y="-70" width="120" height="80" as="geometry" />
        </mxCell>
        <mxCell id="KuRJOXqsIZkGUwwfbZ2d-38" value="" style="endArrow=none;html=1;rounded=0;entryX=1;entryY=1;entryDx=0;entryDy=0;exitX=0;exitY=0;exitDx=0;exitDy=0;" edge="1" parent="1" source="KuRJOXqsIZkGUwwfbZ2d-31" target="KuRJOXqsIZkGUwwfbZ2d-36">
          <mxGeometry width="50" height="50" relative="1" as="geometry">
            <mxPoint x="240" y="110" as="sourcePoint" />
            <mxPoint x="100" y="110" as="targetPoint" />
          </mxGeometry>
        </mxCell>
        <mxCell id="KuRJOXqsIZkGUwwfbZ2d-39" value="" style="endArrow=none;html=1;rounded=0;entryX=0.5;entryY=1;entryDx=0;entryDy=0;exitX=0.25;exitY=0;exitDx=0;exitDy=0;" edge="1" parent="1" source="KuRJOXqsIZkGUwwfbZ2d-31" target="KuRJOXqsIZkGUwwfbZ2d-33">
          <mxGeometry width="50" height="50" relative="1" as="geometry">
            <mxPoint x="250" y="120" as="sourcePoint" />
            <mxPoint x="110" y="120" as="targetPoint" />
          </mxGeometry>
        </mxCell>
        <mxCell id="KuRJOXqsIZkGUwwfbZ2d-40" value="" style="endArrow=none;html=1;rounded=0;entryX=0.5;entryY=1;entryDx=0;entryDy=0;exitX=0.5;exitY=0;exitDx=0;exitDy=0;" edge="1" parent="1" source="KuRJOXqsIZkGUwwfbZ2d-31" target="KuRJOXqsIZkGUwwfbZ2d-32">
          <mxGeometry width="50" height="50" relative="1" as="geometry">
            <mxPoint x="290" y="80" as="sourcePoint" />
            <mxPoint x="212" y="-72" as="targetPoint" />
          </mxGeometry>
        </mxCell>
        <mxCell id="KuRJOXqsIZkGUwwfbZ2d-41" value="" style="endArrow=none;html=1;rounded=0;entryX=0;entryY=1;entryDx=0;entryDy=0;exitX=0.75;exitY=0;exitDx=0;exitDy=0;" edge="1" parent="1" source="KuRJOXqsIZkGUwwfbZ2d-31" target="KuRJOXqsIZkGUwwfbZ2d-34">
          <mxGeometry width="50" height="50" relative="1" as="geometry">
            <mxPoint x="300" y="90" as="sourcePoint" />
            <mxPoint x="222" y="-62" as="targetPoint" />
          </mxGeometry>
        </mxCell>
        <mxCell id="KuRJOXqsIZkGUwwfbZ2d-42" value="&lt;font style=&quot;font-size: 18px;&quot;&gt;Postion&lt;/font&gt;" style="ellipse;whiteSpace=wrap;html=1;" vertex="1" parent="1">
          <mxGeometry x="480" y="-60" width="120" height="80" as="geometry" />
        </mxCell>
        <mxCell id="KuRJOXqsIZkGUwwfbZ2d-43" value="&lt;font style=&quot;font-size: 18px;&quot;&gt;Qualification&lt;/font&gt;" style="ellipse;whiteSpace=wrap;html=1;" vertex="1" parent="1">
          <mxGeometry x="490" y="40" width="120" height="80" as="geometry" />
        </mxCell>
        <mxCell id="KuRJOXqsIZkGUwwfbZ2d-45" value="" style="endArrow=none;html=1;rounded=0;entryX=0;entryY=1;entryDx=0;entryDy=0;exitX=1;exitY=0;exitDx=0;exitDy=0;" edge="1" parent="1" source="KuRJOXqsIZkGUwwfbZ2d-31" target="KuRJOXqsIZkGUwwfbZ2d-42">
          <mxGeometry width="50" height="50" relative="1" as="geometry">
            <mxPoint x="380" y="80" as="sourcePoint" />
            <mxPoint x="418" y="-22" as="targetPoint" />
          </mxGeometry>
        </mxCell>
        <mxCell id="KuRJOXqsIZkGUwwfbZ2d-46" value="" style="endArrow=none;html=1;rounded=0;entryX=-0.011;entryY=0.6;entryDx=0;entryDy=0;exitX=1;exitY=0.75;exitDx=0;exitDy=0;entryPerimeter=0;" edge="1" parent="1" source="KuRJOXqsIZkGUwwfbZ2d-31" target="KuRJOXqsIZkGUwwfbZ2d-114">
          <mxGeometry width="50" height="50" relative="1" as="geometry">
            <mxPoint x="430" y="80" as="sourcePoint" />
            <mxPoint x="518" y="38" as="targetPoint" />
          </mxGeometry>
        </mxCell>
        <mxCell id="KuRJOXqsIZkGUwwfbZ2d-48" value="&lt;span style=&quot;font-size: 24px;&quot;&gt;Routs&lt;/span&gt;" style="rounded=0;whiteSpace=wrap;html=1;" vertex="1" parent="1">
          <mxGeometry x="200" y="380" width="200" height="60" as="geometry" />
        </mxCell>
        <mxCell id="KuRJOXqsIZkGUwwfbZ2d-50" value="&lt;font style=&quot;font-size: 18px;&quot;&gt;Distance&lt;/font&gt;" style="ellipse;whiteSpace=wrap;html=1;" vertex="1" parent="1">
          <mxGeometry x="350" y="530" width="120" height="80" as="geometry" />
        </mxCell>
        <mxCell id="KuRJOXqsIZkGUwwfbZ2d-51" value="&lt;font style=&quot;font-size: 18px;&quot;&gt;&lt;u style=&quot;&quot;&gt;ID&lt;/u&gt;&lt;/font&gt;" style="ellipse;whiteSpace=wrap;html=1;" vertex="1" parent="1">
          <mxGeometry x="450" y="240" width="120" height="80" as="geometry" />
        </mxCell>
        <mxCell id="KuRJOXqsIZkGUwwfbZ2d-52" value="&lt;font style=&quot;font-size: 18px;&quot;&gt;Classification&lt;/font&gt;" style="ellipse;whiteSpace=wrap;html=1;" vertex="1" parent="1">
          <mxGeometry x="180" y="545" width="120" height="80" as="geometry" />
        </mxCell>
        <mxCell id="KuRJOXqsIZkGUwwfbZ2d-53" value="" style="endArrow=none;html=1;rounded=0;entryX=0.5;entryY=0;entryDx=0;entryDy=0;exitX=0.25;exitY=1;exitDx=0;exitDy=0;" edge="1" parent="1" source="KuRJOXqsIZkGUwwfbZ2d-48" target="KuRJOXqsIZkGUwwfbZ2d-52">
          <mxGeometry width="50" height="50" relative="1" as="geometry">
            <mxPoint x="230" y="420" as="sourcePoint" />
            <mxPoint x="90" y="420" as="targetPoint" />
          </mxGeometry>
        </mxCell>
        <mxCell id="KuRJOXqsIZkGUwwfbZ2d-54" value="" style="endArrow=none;html=1;rounded=0;entryX=0.5;entryY=0;entryDx=0;entryDy=0;exitX=0.5;exitY=1;exitDx=0;exitDy=0;" edge="1" parent="1" source="KuRJOXqsIZkGUwwfbZ2d-48" target="KuRJOXqsIZkGUwwfbZ2d-50">
          <mxGeometry width="50" height="50" relative="1" as="geometry">
            <mxPoint x="240" y="430" as="sourcePoint" />
            <mxPoint x="100" y="430" as="targetPoint" />
          </mxGeometry>
        </mxCell>
        <mxCell id="KuRJOXqsIZkGUwwfbZ2d-56" value="" style="endArrow=none;html=1;rounded=0;entryX=0;entryY=1;entryDx=0;entryDy=0;exitX=0.75;exitY=0;exitDx=0;exitDy=0;" edge="1" parent="1" source="KuRJOXqsIZkGUwwfbZ2d-48" target="KuRJOXqsIZkGUwwfbZ2d-51">
          <mxGeometry width="50" height="50" relative="1" as="geometry">
            <mxPoint x="290" y="400" as="sourcePoint" />
            <mxPoint x="212" y="248" as="targetPoint" />
          </mxGeometry>
        </mxCell>
        <mxCell id="KuRJOXqsIZkGUwwfbZ2d-57" value="&lt;font style=&quot;font-size: 18px;&quot;&gt;Origin&lt;/font&gt;" style="ellipse;whiteSpace=wrap;html=1;" vertex="1" parent="1">
          <mxGeometry x="510" y="360" width="120" height="80" as="geometry" />
        </mxCell>
        <mxCell id="KuRJOXqsIZkGUwwfbZ2d-58" value="&lt;font style=&quot;font-size: 18px;&quot;&gt;Destination&lt;/font&gt;" style="ellipse;whiteSpace=wrap;html=1;" vertex="1" parent="1">
          <mxGeometry x="480" y="480" width="120" height="80" as="geometry" />
        </mxCell>
        <mxCell id="KuRJOXqsIZkGUwwfbZ2d-59" value="" style="endArrow=none;html=1;rounded=0;entryX=0;entryY=1;entryDx=0;entryDy=0;exitX=1;exitY=0.25;exitDx=0;exitDy=0;" edge="1" parent="1" source="KuRJOXqsIZkGUwwfbZ2d-48" target="KuRJOXqsIZkGUwwfbZ2d-57">
          <mxGeometry width="50" height="50" relative="1" as="geometry">
            <mxPoint x="370" y="390" as="sourcePoint" />
            <mxPoint x="408" y="288" as="targetPoint" />
          </mxGeometry>
        </mxCell>
        <mxCell id="KuRJOXqsIZkGUwwfbZ2d-60" value="" style="endArrow=none;html=1;rounded=0;entryX=0;entryY=0.5;entryDx=0;entryDy=0;exitX=1;exitY=0.75;exitDx=0;exitDy=0;" edge="1" parent="1" source="KuRJOXqsIZkGUwwfbZ2d-48" target="KuRJOXqsIZkGUwwfbZ2d-58">
          <mxGeometry width="50" height="50" relative="1" as="geometry">
            <mxPoint x="420" y="390" as="sourcePoint" />
            <mxPoint x="508" y="348" as="targetPoint" />
          </mxGeometry>
        </mxCell>
        <mxCell id="KuRJOXqsIZkGUwwfbZ2d-64" value="&lt;font style=&quot;font-size: 18px;&quot;&gt;Capacity&lt;/font&gt;" style="ellipse;whiteSpace=wrap;html=1;" vertex="1" parent="1">
          <mxGeometry x="-570" y="380" width="120" height="80" as="geometry" />
        </mxCell>
        <mxCell id="KuRJOXqsIZkGUwwfbZ2d-65" value="" style="endArrow=none;html=1;rounded=0;exitX=0;exitY=0.5;exitDx=0;exitDy=0;entryX=1;entryY=1;entryDx=0;entryDy=0;" edge="1" parent="1" target="KuRJOXqsIZkGUwwfbZ2d-64" source="KuRJOXqsIZkGUwwfbZ2d-4">
          <mxGeometry width="50" height="50" relative="1" as="geometry">
            <mxPoint x="-750" y="330" as="sourcePoint" />
            <mxPoint x="-570" y="390" as="targetPoint" />
          </mxGeometry>
        </mxCell>
        <mxCell id="KuRJOXqsIZkGUwwfbZ2d-66" value="&lt;u&gt;&lt;font style=&quot;font-size: 18px;&quot;&gt;ID&lt;/font&gt;&lt;/u&gt;" style="ellipse;whiteSpace=wrap;html=1;" vertex="1" parent="1">
          <mxGeometry x="-500" y="270" width="120" height="80" as="geometry" />
        </mxCell>
        <mxCell id="KuRJOXqsIZkGUwwfbZ2d-67" value="" style="endArrow=none;html=1;rounded=0;entryX=0.5;entryY=1;entryDx=0;entryDy=0;exitX=0;exitY=0;exitDx=0;exitDy=0;" edge="1" parent="1" target="KuRJOXqsIZkGUwwfbZ2d-66" source="KuRJOXqsIZkGUwwfbZ2d-4">
          <mxGeometry width="50" height="50" relative="1" as="geometry">
            <mxPoint x="-700" y="345" as="sourcePoint" />
            <mxPoint x="-692" y="238" as="targetPoint" />
          </mxGeometry>
        </mxCell>
        <mxCell id="KuRJOXqsIZkGUwwfbZ2d-68" value="&lt;font style=&quot;font-size: 18px;&quot;&gt;Model&lt;/font&gt;" style="ellipse;whiteSpace=wrap;html=1;" vertex="1" parent="1">
          <mxGeometry x="-610" y="500" width="120" height="80" as="geometry" />
        </mxCell>
        <mxCell id="KuRJOXqsIZkGUwwfbZ2d-69" value="" style="endArrow=none;html=1;rounded=0;entryX=1;entryY=0.5;entryDx=0;entryDy=0;exitX=0;exitY=0.75;exitDx=0;exitDy=0;" edge="1" parent="1" target="KuRJOXqsIZkGUwwfbZ2d-68" source="KuRJOXqsIZkGUwwfbZ2d-4">
          <mxGeometry width="50" height="50" relative="1" as="geometry">
            <mxPoint x="-190" y="340" as="sourcePoint" />
            <mxPoint x="-328" y="208" as="targetPoint" />
          </mxGeometry>
        </mxCell>
        <mxCell id="KuRJOXqsIZkGUwwfbZ2d-70" value="&lt;font style=&quot;font-size: 18px;&quot;&gt;Num_Passengers&lt;/font&gt;" style="ellipse;whiteSpace=wrap;html=1;" vertex="1" parent="1">
          <mxGeometry x="-180" y="250" width="160" height="80" as="geometry" />
        </mxCell>
        <mxCell id="KuRJOXqsIZkGUwwfbZ2d-71" value="" style="endArrow=none;html=1;rounded=0;entryX=1;entryY=1;entryDx=0;entryDy=0;exitX=0;exitY=0;exitDx=0;exitDy=0;" edge="1" parent="1" target="KuRJOXqsIZkGUwwfbZ2d-127" source="KuRJOXqsIZkGUwwfbZ2d-115">
          <mxGeometry width="50" height="50" relative="1" as="geometry">
            <mxPoint x="-140" y="355" as="sourcePoint" />
            <mxPoint x="-132" y="248" as="targetPoint" />
          </mxGeometry>
        </mxCell>
        <mxCell id="KuRJOXqsIZkGUwwfbZ2d-74" value="&lt;font style=&quot;font-size: 18px;&quot;&gt;&lt;u&gt;ID&lt;/u&gt;&lt;/font&gt;" style="ellipse;whiteSpace=wrap;html=1;" vertex="1" parent="1">
          <mxGeometry x="40" y="150" width="120" height="80" as="geometry" />
        </mxCell>
        <mxCell id="KuRJOXqsIZkGUwwfbZ2d-75" value="" style="endArrow=none;html=1;rounded=0;entryX=1;entryY=0;entryDx=0;entryDy=0;exitX=0;exitY=1;exitDx=0;exitDy=0;" edge="1" parent="1" target="KuRJOXqsIZkGUwwfbZ2d-74" source="KuRJOXqsIZkGUwwfbZ2d-31">
          <mxGeometry width="50" height="50" relative="1" as="geometry">
            <mxPoint x="-80" y="175" as="sourcePoint" />
            <mxPoint x="-72" y="68" as="targetPoint" />
          </mxGeometry>
        </mxCell>
        <mxCell id="KuRJOXqsIZkGUwwfbZ2d-76" value="&lt;font style=&quot;font-size: 18px;&quot;&gt;Major_Pilot&lt;/font&gt;" style="ellipse;whiteSpace=wrap;html=1;" vertex="1" parent="1">
          <mxGeometry x="-400" y="760" width="120" height="80" as="geometry" />
        </mxCell>
        <mxCell id="KuRJOXqsIZkGUwwfbZ2d-77" value="" style="endArrow=none;html=1;rounded=0;exitX=0.25;exitY=1;exitDx=0;exitDy=0;entryX=0.5;entryY=0;entryDx=0;entryDy=0;" edge="1" parent="1" target="KuRJOXqsIZkGUwwfbZ2d-76" source="KuRJOXqsIZkGUwwfbZ2d-5">
          <mxGeometry width="50" height="50" relative="1" as="geometry">
            <mxPoint x="-470" y="790" as="sourcePoint" />
            <mxPoint x="-120" y="770" as="targetPoint" />
          </mxGeometry>
        </mxCell>
        <mxCell id="KuRJOXqsIZkGUwwfbZ2d-78" value="&lt;font style=&quot;font-size: 18px;&quot;&gt;hostess&lt;/font&gt;" style="ellipse;whiteSpace=wrap;html=1;" vertex="1" parent="1">
          <mxGeometry x="-190" y="750" width="120" height="80" as="geometry" />
        </mxCell>
        <mxCell id="KuRJOXqsIZkGUwwfbZ2d-79" value="" style="endArrow=none;html=1;rounded=0;entryX=0.394;entryY=0.015;entryDx=0;entryDy=0;exitX=0.75;exitY=1;exitDx=0;exitDy=0;entryPerimeter=0;" edge="1" parent="1" target="KuRJOXqsIZkGUwwfbZ2d-143" source="KuRJOXqsIZkGUwwfbZ2d-5">
          <mxGeometry width="50" height="50" relative="1" as="geometry">
            <mxPoint x="-420" y="805" as="sourcePoint" />
            <mxPoint x="-412" y="698" as="targetPoint" />
          </mxGeometry>
        </mxCell>
        <mxCell id="KuRJOXqsIZkGUwwfbZ2d-81" value="&lt;meta charset=&quot;utf-8&quot;&gt;&lt;span style=&quot;color: rgb(0, 0, 0); font-family: Helvetica; font-size: 18px; font-style: normal; font-variant-ligatures: normal; font-variant-caps: normal; font-weight: 400; letter-spacing: normal; orphans: 2; text-align: center; text-indent: 0px; text-transform: none; widows: 2; word-spacing: 0px; -webkit-text-stroke-width: 0px; white-space: normal; background-color: rgb(251, 251, 251); text-decoration-thickness: initial; text-decoration-style: initial; text-decoration-color: initial; display: inline !important; float: none;&quot;&gt;Assistant_Pilot&lt;/span&gt;" style="ellipse;whiteSpace=wrap;html=1;" vertex="1" parent="1">
          <mxGeometry x="-310" y="830" width="150" height="80" as="geometry" />
        </mxCell>
        <mxCell id="KuRJOXqsIZkGUwwfbZ2d-82" value="" style="endArrow=none;html=1;rounded=0;entryX=0.5;entryY=0;entryDx=0;entryDy=0;exitX=0.5;exitY=1;exitDx=0;exitDy=0;exitPerimeter=0;" edge="1" parent="1" target="KuRJOXqsIZkGUwwfbZ2d-81" source="KuRJOXqsIZkGUwwfbZ2d-5">
          <mxGeometry width="50" height="50" relative="1" as="geometry">
            <mxPoint x="-30" y="700" as="sourcePoint" />
            <mxPoint x="10" y="830" as="targetPoint" />
          </mxGeometry>
        </mxCell>
        <mxCell id="KuRJOXqsIZkGUwwfbZ2d-89" value="&lt;font style=&quot;font-size: 18px;&quot;&gt;Paid_Recived&lt;/font&gt;" style="ellipse;whiteSpace=wrap;html=1;" vertex="1" parent="1">
          <mxGeometry x="-931" y="250" width="141" height="80" as="geometry" />
        </mxCell>
        <mxCell id="KuRJOXqsIZkGUwwfbZ2d-97" value="" style="ellipse;whiteSpace=wrap;html=1;fillColor=none;" vertex="1" parent="1">
          <mxGeometry x="-160" y="-90" width="140" height="100" as="geometry" />
        </mxCell>
        <mxCell id="KuRJOXqsIZkGUwwfbZ2d-98" value="&lt;font style=&quot;font-size: 18px;&quot;&gt;Work&lt;/font&gt;" style="rhombus;whiteSpace=wrap;html=1;" vertex="1" parent="1">
          <mxGeometry y="60" width="80" height="80" as="geometry" />
        </mxCell>
        <mxCell id="KuRJOXqsIZkGUwwfbZ2d-99" value="" style="endArrow=none;html=1;rounded=0;entryX=1;entryY=0.5;entryDx=0;entryDy=0;exitX=0;exitY=0.5;exitDx=0;exitDy=0;" edge="1" parent="1" source="KuRJOXqsIZkGUwwfbZ2d-31" target="KuRJOXqsIZkGUwwfbZ2d-98">
          <mxGeometry width="50" height="50" relative="1" as="geometry">
            <mxPoint x="310" y="230" as="sourcePoint" />
            <mxPoint x="90" y="110" as="targetPoint" />
          </mxGeometry>
        </mxCell>
        <mxCell id="KuRJOXqsIZkGUwwfbZ2d-101" value="" style="endArrow=none;html=1;rounded=0;entryX=1;entryY=0.5;entryDx=0;entryDy=0;exitX=0;exitY=0.5;exitDx=0;exitDy=0;" edge="1" parent="1" source="KuRJOXqsIZkGUwwfbZ2d-98" target="KuRJOXqsIZkGUwwfbZ2d-1">
          <mxGeometry width="50" height="50" relative="1" as="geometry">
            <mxPoint x="10" y="100" as="sourcePoint" />
            <mxPoint x="90" y="110" as="targetPoint" />
          </mxGeometry>
        </mxCell>
        <mxCell id="KuRJOXqsIZkGUwwfbZ2d-103" value="&lt;font style=&quot;font-size: 18px;&quot;&gt;Day&lt;/font&gt;" style="ellipse;whiteSpace=wrap;html=1;" vertex="1" parent="1">
          <mxGeometry x="-30" y="-250" width="120" height="80" as="geometry" />
        </mxCell>
        <mxCell id="KuRJOXqsIZkGUwwfbZ2d-106" value="&lt;font style=&quot;font-size: 18px;&quot;&gt;Month&lt;/font&gt;" style="ellipse;whiteSpace=wrap;html=1;" vertex="1" parent="1">
          <mxGeometry x="80" y="-310" width="120" height="80" as="geometry" />
        </mxCell>
        <mxCell id="KuRJOXqsIZkGUwwfbZ2d-107" value="&lt;font style=&quot;font-size: 18px;&quot;&gt;year&lt;/font&gt;" style="ellipse;whiteSpace=wrap;html=1;" vertex="1" parent="1">
          <mxGeometry x="210" y="-290" width="120" height="80" as="geometry" />
        </mxCell>
        <mxCell id="KuRJOXqsIZkGUwwfbZ2d-109" value="" style="endArrow=none;html=1;rounded=0;entryX=0.5;entryY=1;entryDx=0;entryDy=0;exitX=0.5;exitY=0;exitDx=0;exitDy=0;" edge="1" parent="1" source="KuRJOXqsIZkGUwwfbZ2d-33" target="KuRJOXqsIZkGUwwfbZ2d-106">
          <mxGeometry width="50" height="50" relative="1" as="geometry">
            <mxPoint x="310" y="80" as="sourcePoint" />
            <mxPoint x="320" y="-50" as="targetPoint" />
          </mxGeometry>
        </mxCell>
        <mxCell id="KuRJOXqsIZkGUwwfbZ2d-110" value="" style="endArrow=none;html=1;rounded=0;entryX=0;entryY=1;entryDx=0;entryDy=0;exitX=1;exitY=0;exitDx=0;exitDy=0;" edge="1" parent="1" source="KuRJOXqsIZkGUwwfbZ2d-33" target="KuRJOXqsIZkGUwwfbZ2d-107">
          <mxGeometry width="50" height="50" relative="1" as="geometry">
            <mxPoint x="180" y="-120" as="sourcePoint" />
            <mxPoint x="150" y="-220" as="targetPoint" />
          </mxGeometry>
        </mxCell>
        <mxCell id="KuRJOXqsIZkGUwwfbZ2d-111" value="" style="endArrow=none;html=1;rounded=0;entryX=1;entryY=1;entryDx=0;entryDy=0;" edge="1" parent="1" source="KuRJOXqsIZkGUwwfbZ2d-33" target="KuRJOXqsIZkGUwwfbZ2d-103">
          <mxGeometry width="50" height="50" relative="1" as="geometry">
            <mxPoint x="222" y="-108" as="sourcePoint" />
            <mxPoint x="238" y="-212" as="targetPoint" />
          </mxGeometry>
        </mxCell>
        <mxCell id="KuRJOXqsIZkGUwwfbZ2d-114" value="" style="ellipse;whiteSpace=wrap;html=1;fillColor=none;" vertex="1" parent="1">
          <mxGeometry x="481" y="30" width="140" height="100" as="geometry" />
        </mxCell>
        <mxCell id="KuRJOXqsIZkGUwwfbZ2d-115" value="&lt;font style=&quot;font-size: 18px;&quot;&gt;Work&lt;/font&gt;" style="rhombus;whiteSpace=wrap;html=1;" vertex="1" parent="1">
          <mxGeometry y="370" width="80" height="80" as="geometry" />
        </mxCell>
        <mxCell id="KuRJOXqsIZkGUwwfbZ2d-116" value="" style="endArrow=none;html=1;rounded=0;entryX=0;entryY=0.5;entryDx=0;entryDy=0;" edge="1" parent="1">
          <mxGeometry width="50" height="50" relative="1" as="geometry">
            <mxPoint x="-130" y="407" as="sourcePoint" />
            <mxPoint y="407" as="targetPoint" />
          </mxGeometry>
        </mxCell>
        <mxCell id="KuRJOXqsIZkGUwwfbZ2d-117" value="" style="endArrow=none;html=1;rounded=0;entryX=0;entryY=0.5;entryDx=0;entryDy=0;exitX=1;exitY=0.5;exitDx=0;exitDy=0;" edge="1" parent="1" source="KuRJOXqsIZkGUwwfbZ2d-115" target="KuRJOXqsIZkGUwwfbZ2d-48">
          <mxGeometry width="50" height="50" relative="1" as="geometry">
            <mxPoint x="-110" y="430" as="sourcePoint" />
            <mxPoint x="-22" y="358" as="targetPoint" />
          </mxGeometry>
        </mxCell>
        <mxCell id="KuRJOXqsIZkGUwwfbZ2d-118" value="&lt;font style=&quot;font-size: 18px;&quot;&gt;Price_Passenger&lt;/font&gt;" style="ellipse;whiteSpace=wrap;html=1;" vertex="1" parent="1">
          <mxGeometry x="-10" y="240" width="150" height="80" as="geometry" />
        </mxCell>
        <mxCell id="KuRJOXqsIZkGUwwfbZ2d-119" value="" style="endArrow=none;html=1;rounded=0;entryX=0.5;entryY=1;entryDx=0;entryDy=0;exitX=0.5;exitY=0;exitDx=0;exitDy=0;" edge="1" parent="1" target="KuRJOXqsIZkGUwwfbZ2d-118" source="KuRJOXqsIZkGUwwfbZ2d-115">
          <mxGeometry width="50" height="50" relative="1" as="geometry">
            <mxPoint x="140" y="360" as="sourcePoint" />
            <mxPoint x="-12" y="218" as="targetPoint" />
          </mxGeometry>
        </mxCell>
        <mxCell id="KuRJOXqsIZkGUwwfbZ2d-120" value="&lt;font style=&quot;font-size: 18px;&quot;&gt;Departure_Time&lt;/font&gt;" style="ellipse;whiteSpace=wrap;html=1;" vertex="1" parent="1">
          <mxGeometry x="140" y="270" width="140" height="80" as="geometry" />
        </mxCell>
        <mxCell id="KuRJOXqsIZkGUwwfbZ2d-121" value="" style="endArrow=none;html=1;rounded=0;entryX=0.5;entryY=1;entryDx=0;entryDy=0;exitX=1;exitY=0;exitDx=0;exitDy=0;" edge="1" parent="1" target="KuRJOXqsIZkGUwwfbZ2d-120" source="KuRJOXqsIZkGUwwfbZ2d-115">
          <mxGeometry width="50" height="50" relative="1" as="geometry">
            <mxPoint x="260" y="390" as="sourcePoint" />
            <mxPoint x="108" y="248" as="targetPoint" />
          </mxGeometry>
        </mxCell>
        <mxCell id="KuRJOXqsIZkGUwwfbZ2d-122" value="&lt;font style=&quot;font-size: 18px;&quot;&gt;Arrival_Time&lt;/font&gt;" style="ellipse;whiteSpace=wrap;html=1;" vertex="1" parent="1">
          <mxGeometry x="-40" y="490" width="120" height="80" as="geometry" />
        </mxCell>
        <mxCell id="KuRJOXqsIZkGUwwfbZ2d-123" value="" style="endArrow=none;html=1;rounded=0;exitX=0;exitY=1;exitDx=0;exitDy=0;entryX=0.5;entryY=0;entryDx=0;entryDy=0;" edge="1" parent="1" target="KuRJOXqsIZkGUwwfbZ2d-122" source="KuRJOXqsIZkGUwwfbZ2d-115">
          <mxGeometry width="50" height="50" relative="1" as="geometry">
            <mxPoint x="120" y="610" as="sourcePoint" />
            <mxPoint x="20" y="480" as="targetPoint" />
          </mxGeometry>
        </mxCell>
        <mxCell id="KuRJOXqsIZkGUwwfbZ2d-125" value="&lt;font style=&quot;font-size: 18px;&quot;&gt;Spent_Travl&lt;/font&gt;" style="ellipse;whiteSpace=wrap;html=1;" vertex="1" parent="1">
          <mxGeometry x="80" y="460" width="120" height="80" as="geometry" />
        </mxCell>
        <mxCell id="KuRJOXqsIZkGUwwfbZ2d-126" value="" style="endArrow=none;html=1;rounded=0;entryX=1;entryY=1;entryDx=0;entryDy=0;" edge="1" parent="1" target="KuRJOXqsIZkGUwwfbZ2d-115" source="KuRJOXqsIZkGUwwfbZ2d-125">
          <mxGeometry width="50" height="50" relative="1" as="geometry">
            <mxPoint x="110" y="470" as="sourcePoint" />
            <mxPoint x="98" y="443" as="targetPoint" />
          </mxGeometry>
        </mxCell>
        <mxCell id="KuRJOXqsIZkGUwwfbZ2d-127" value="" style="ellipse;whiteSpace=wrap;html=1;fillColor=none;" vertex="1" parent="1">
          <mxGeometry x="-190" y="240" width="180" height="100" as="geometry" />
        </mxCell>
        <mxCell id="KuRJOXqsIZkGUwwfbZ2d-130" value="M" style="text;html=1;align=center;verticalAlign=middle;resizable=0;points=[];autosize=1;strokeColor=none;fillColor=none;" vertex="1" parent="1">
          <mxGeometry x="170" y="385" width="30" height="30" as="geometry" />
        </mxCell>
        <mxCell id="KuRJOXqsIZkGUwwfbZ2d-134" value="M" style="text;html=1;align=center;verticalAlign=middle;resizable=0;points=[];autosize=1;strokeColor=none;fillColor=none;" vertex="1" parent="1">
          <mxGeometry x="-130" y="380" width="30" height="30" as="geometry" />
        </mxCell>
        <mxCell id="KuRJOXqsIZkGUwwfbZ2d-137" value="M" style="text;html=1;align=center;verticalAlign=middle;resizable=0;points=[];autosize=1;strokeColor=none;fillColor=none;" vertex="1" parent="1">
          <mxGeometry x="170" y="70" width="30" height="30" as="geometry" />
        </mxCell>
        <mxCell id="KuRJOXqsIZkGUwwfbZ2d-139" value="1" style="text;html=1;align=center;verticalAlign=middle;resizable=0;points=[];autosize=1;strokeColor=none;fillColor=none;" vertex="1" parent="1">
          <mxGeometry x="-130" y="70" width="30" height="30" as="geometry" />
        </mxCell>
        <mxCell id="KuRJOXqsIZkGUwwfbZ2d-141" value="1" style="text;html=1;align=center;verticalAlign=middle;resizable=0;points=[];autosize=1;strokeColor=none;fillColor=none;" vertex="1" parent="1">
          <mxGeometry x="-260" y="130" width="30" height="30" as="geometry" />
        </mxCell>
        <mxCell id="KuRJOXqsIZkGUwwfbZ2d-142" value="M" style="text;html=1;align=center;verticalAlign=middle;resizable=0;points=[];autosize=1;strokeColor=none;fillColor=none;" vertex="1" parent="1">
          <mxGeometry x="-260" y="350" width="30" height="30" as="geometry" />
        </mxCell>
        <mxCell id="KuRJOXqsIZkGUwwfbZ2d-143" value="" style="ellipse;whiteSpace=wrap;html=1;fillColor=none;" vertex="1" parent="1">
          <mxGeometry x="-200" y="740" width="140" height="100" as="geometry" />
        </mxCell>
        <mxCell id="KuRJOXqsIZkGUwwfbZ2d-144" value="1" style="text;html=1;align=center;verticalAlign=middle;resizable=0;points=[];autosize=1;strokeColor=none;fillColor=none;" vertex="1" parent="1">
          <mxGeometry x="-230" y="440" width="30" height="30" as="geometry" />
        </mxCell>
        <mxCell id="KuRJOXqsIZkGUwwfbZ2d-145" value="1" style="text;html=1;align=center;verticalAlign=middle;resizable=0;points=[];autosize=1;strokeColor=none;fillColor=none;" vertex="1" parent="1">
          <mxGeometry x="-230" y="610" width="30" height="30" as="geometry" />
        </mxCell>
        <mxCell id="KuRJOXqsIZkGUwwfbZ2d-149" value="" style="endArrow=none;html=1;rounded=0;entryX=0.5;entryY=0;entryDx=0;entryDy=0;exitX=0.5;exitY=1;exitDx=0;exitDy=0;" edge="1" parent="1" source="KuRJOXqsIZkGUwwfbZ2d-13" target="KuRJOXqsIZkGUwwfbZ2d-5">
          <mxGeometry width="50" height="50" relative="1" as="geometry">
            <mxPoint x="-120" y="380" as="sourcePoint" />
            <mxPoint x="-70" y="330" as="targetPoint" />
          </mxGeometry>
        </mxCell>
        <mxCell id="KuRJOXqsIZkGUwwfbZ2d-150" value="&lt;font style=&quot;font-size: 24px;&quot;&gt;Transactions&lt;/font&gt;" style="rounded=0;whiteSpace=wrap;html=1;" vertex="1" parent="1">
          <mxGeometry x="-870" y="70" width="200" height="60" as="geometry" />
        </mxCell>
        <mxCell id="KuRJOXqsIZkGUwwfbZ2d-151" value="&lt;font style=&quot;font-size: 18px;&quot;&gt;Sell&lt;/font&gt;" style="rhombus;whiteSpace=wrap;html=1;" vertex="1" parent="1">
          <mxGeometry x="-540" y="60" width="80" height="80" as="geometry" />
        </mxCell>
        <mxCell id="KuRJOXqsIZkGUwwfbZ2d-153" value="&lt;u&gt;&lt;font style=&quot;font-size: 18px;&quot;&gt;ID&lt;/font&gt;&lt;/u&gt;" style="ellipse;whiteSpace=wrap;html=1;" vertex="1" parent="1">
          <mxGeometry x="-1020" y="-80" width="120" height="80" as="geometry" />
        </mxCell>
        <mxCell id="KuRJOXqsIZkGUwwfbZ2d-154" value="" style="endArrow=none;html=1;rounded=0;exitX=0.25;exitY=0;exitDx=0;exitDy=0;entryX=1;entryY=1;entryDx=0;entryDy=0;" edge="1" parent="1" target="KuRJOXqsIZkGUwwfbZ2d-153" source="KuRJOXqsIZkGUwwfbZ2d-150">
          <mxGeometry width="50" height="50" relative="1" as="geometry">
            <mxPoint x="-870" y="120" as="sourcePoint" />
            <mxPoint x="-910" y="200" as="targetPoint" />
          </mxGeometry>
        </mxCell>
        <mxCell id="KuRJOXqsIZkGUwwfbZ2d-155" value="" style="endArrow=none;html=1;rounded=0;entryX=0.5;entryY=0;entryDx=0;entryDy=0;exitX=0.5;exitY=1;exitDx=0;exitDy=0;" edge="1" parent="1" source="KuRJOXqsIZkGUwwfbZ2d-150" target="KuRJOXqsIZkGUwwfbZ2d-89">
          <mxGeometry width="50" height="50" relative="1" as="geometry">
            <mxPoint x="-770" y="120" as="sourcePoint" />
            <mxPoint x="-662" y="172" as="targetPoint" />
          </mxGeometry>
        </mxCell>
        <mxCell id="KuRJOXqsIZkGUwwfbZ2d-156" value="&lt;font style=&quot;font-size: 18px;&quot;&gt;Date&lt;/font&gt;" style="ellipse;whiteSpace=wrap;html=1;" vertex="1" parent="1">
          <mxGeometry x="-1040" y="190" width="120" height="80" as="geometry" />
        </mxCell>
        <mxCell id="KuRJOXqsIZkGUwwfbZ2d-157" value="" style="endArrow=none;html=1;rounded=0;entryX=1;entryY=0;entryDx=0;entryDy=0;exitX=0.25;exitY=1;exitDx=0;exitDy=0;" edge="1" parent="1" source="KuRJOXqsIZkGUwwfbZ2d-150" target="KuRJOXqsIZkGUwwfbZ2d-156">
          <mxGeometry width="50" height="50" relative="1" as="geometry">
            <mxPoint x="-820" y="120" as="sourcePoint" />
            <mxPoint x="-780" y="260" as="targetPoint" />
          </mxGeometry>
        </mxCell>
        <mxCell id="KuRJOXqsIZkGUwwfbZ2d-158" value="&lt;font style=&quot;font-size: 18px;&quot;&gt;Description&lt;/font&gt;" style="ellipse;whiteSpace=wrap;html=1;" vertex="1" parent="1">
          <mxGeometry x="-1100" y="10" width="120" height="80" as="geometry" />
        </mxCell>
        <mxCell id="KuRJOXqsIZkGUwwfbZ2d-160" value="" style="endArrow=none;html=1;rounded=0;exitX=0;exitY=0.5;exitDx=0;exitDy=0;entryX=1;entryY=0.5;entryDx=0;entryDy=0;" edge="1" parent="1" source="KuRJOXqsIZkGUwwfbZ2d-1" target="KuRJOXqsIZkGUwwfbZ2d-151">
          <mxGeometry width="50" height="50" relative="1" as="geometry">
            <mxPoint x="-270" y="140" as="sourcePoint" />
            <mxPoint x="-370" y="210" as="targetPoint" />
          </mxGeometry>
        </mxCell>
        <mxCell id="KuRJOXqsIZkGUwwfbZ2d-161" value="" style="endArrow=none;html=1;rounded=0;exitX=0;exitY=0.5;exitDx=0;exitDy=0;entryX=1;entryY=0.5;entryDx=0;entryDy=0;" edge="1" parent="1" source="KuRJOXqsIZkGUwwfbZ2d-151" target="KuRJOXqsIZkGUwwfbZ2d-150">
          <mxGeometry width="50" height="50" relative="1" as="geometry">
            <mxPoint x="-320" y="110" as="sourcePoint" />
            <mxPoint x="-470" y="110" as="targetPoint" />
          </mxGeometry>
        </mxCell>
        <mxCell id="KuRJOXqsIZkGUwwfbZ2d-164" value="" style="endArrow=none;html=1;rounded=0;exitX=0;exitY=0.5;exitDx=0;exitDy=0;entryX=1;entryY=0.5;entryDx=0;entryDy=0;" edge="1" parent="1" source="KuRJOXqsIZkGUwwfbZ2d-150" target="KuRJOXqsIZkGUwwfbZ2d-158">
          <mxGeometry width="50" height="50" relative="1" as="geometry">
            <mxPoint x="-810" y="80" as="sourcePoint" />
            <mxPoint x="-908" y="-2" as="targetPoint" />
          </mxGeometry>
        </mxCell>
        <mxCell id="KuRJOXqsIZkGUwwfbZ2d-171" value="1" style="text;html=1;align=center;verticalAlign=middle;resizable=0;points=[];autosize=1;strokeColor=none;fillColor=none;" vertex="1" parent="1">
          <mxGeometry x="-360" y="100" width="30" height="30" as="geometry" />
        </mxCell>
        <mxCell id="KuRJOXqsIZkGUwwfbZ2d-172" value="M" style="text;html=1;align=center;verticalAlign=middle;resizable=0;points=[];autosize=1;strokeColor=none;fillColor=none;" vertex="1" parent="1">
          <mxGeometry x="-670" y="100" width="30" height="30" as="geometry" />
        </mxCell>
      </root>
    </mxGraphModel>
  </diagram>
</mxfile>
